#!OML:ASF F:\VICON\USERDATA\INSTALL\Justin_Nancy\Justin_Nancy.ASF
:FULLY-SPECIFIED
:DEGREES
284
root 2.05864 17.5804 9.82117 -2.71974 39.4783 -3.9776
lowerback 5.12636 -0.452015 1.13095
upperback -0.245277 -0.394457 3.67712
thorax -3.11241 -0.175627 3.19347
lowerneck -14.764 -3.35133 -9.88535
upperneck 25.4935 -2.98787 3.77657
head 10.892 -1.80419 2.63983
rclavicle -1.30452e-014 3.02153e-014
rhumerus -34.433 -16.7158 -74.7281
rradius 29.6374
rwrist 6.92263
rhand -14.9202 12.9547
rfingers 7.12502
rthumb 11.2417 -16.7241
lclavicle -1.30452e-014 3.02153e-014
lhumerus -32.4178 8.98453 86.2836
lradius 27.1139
lwrist -12.8582
lhand -12.871 19.5293
lfingers 7.12502
lthumb 13.2176 49.0903
rfemur -6.88269 2.69672 28.7619
rtibia 20.8972
rfoot -10.6021 -0.0557639
rtoes 5.94735
lfemur -23.8426 2.75965 -17.4792
ltibia 63.4115
lfoot -5.56652 -5.44774
ltoes 0.340552
285
root 2.13848 17.5588 9.93876 -2.89407 39.4555 -4.23701
lowerback 5.31428 -0.302788 1.40328
upperback -0.321515 -0.167825 3.67686
thorax -3.3086 -0.0659734 3.02494
lowerneck -14.345 -3.45412 -9.63485
upperneck 25.1711 -3.15916 3.47129
head 10.6943 -1.89201 2.46135
rclavicle 3.90115e-014 -1.03368e-014
rhumerus -34.1882 -16.3069 -74.8742
rradius 30.0219
rwrist 6.30225
rhand -14.9674 12.9909
rfingers 7.12502
rthumb 11.1962 -16.6903
lclavicle 3.90115e-014 -1.03368e-014
lhumerus -32.6928 8.82121 86.3061
lradius 26.9016
lwrist -12.7994
lhand -12.9381 19.6732
lfingers 7.12502
lthumb 13.1529 49.2383
rfemur -6.48791 2.65376 29.1741
rtibia 21.2912
rfoot -11.1017 -0.275729
rtoes 2.82933
lfemur -24.7913 2.76917 -17.3689
ltibia 62.8019
lfoot -6.42732 -4.73014
ltoes -0.0414816
286
root 2.22144 17.5404 10.0574 -3.06347 39.4589 -4.50708
lowerback 5.40779 -0.221358 1.69163
upperback -0.32409 -0.0337883 3.72467
thorax -3.37 -0.00314057 2.90217
lowerneck -14.1211 -3.45181 -9.46577
upperneck 24.8128 -3.1397 3.16305
head 10.5098 -1.89927 2.32183
rclavicle -6.43317e-014 -2.46493e-014
rhumerus -33.8214 -15.8039 -75.0609
rradius 30.4638
rwrist 5.70577
rhand -15.2158 13.1583
rfingers 7.12502
rthumb 10.9566 -16.5358
lclavicle -6.43317e-014 -2.46493e-014
lhumerus -33.0328 8.56891 86.5055
lradius 27.0513
lwrist -12.1853
lhand -12.9595 20.8919
lfingers 7.12502
lthumb 13.1322 50.4584
rfemur -6.10076 2.46309 29.5739
rtibia 21.6973
rfoot -11.5403 -0.365038
rtoes -0.966881
lfemur -25.6509 2.87143 -17.2656
ltibia 61.9547
lfoot -7.66366 -4.2166
ltoes -0.518794
287
root 2.31259 17.5332 10.1672 -2.93057 39.4305 -4.47035
lowerback 5.38404 -0.244939 1.86741
upperback -0.342417 -0.0580067 3.63072
thorax -3.37486 -0.0194633 2.70736
lowerneck -14.2315 -3.39071 -9.35642
upperneck 24.8848 -3.06093 3.12878
head 10.5487 -1.85743 2.30175
rclavicle 3.39922e-014 5.56597e-015
rhumerus -33.3167 -15.0351 -75.5494
rradius 30.8507
rwrist 5.01973
rhand -15.5349 13.1375
rfingers 7.12502
rthumb 10.6488 -16.5727
lclavicle 3.39922e-014 5.56597e-015
lhumerus -33.7384 7.04966 87.0142
lradius 27.994
lwrist -9.88857
lhand -12.9984 22.3616
lfingers 7.12502
lthumb 13.0947 51.9305
rfemur -5.86861 2.56745 29.5466
rtibia 22.0811
rfoot -11.932 -0.294993
rtoes 0.763179
lfemur -26.5016 3.24274 -17.4568
ltibia 60.9011
lfoot -8.84422 -4.03593
ltoes 0.272011
288
root 2.40344 17.5242 10.271 -2.78334 39.466 -4.25689
lowerback 5.48794 -0.234106 1.89746
upperback -0.341947 -0.0441755 3.47458
thorax -3.43315 -0.0152545 2.5279
lowerneck -14.4088 -3.45101 -9.4874
upperneck 25.105 -3.18031 3.44791
head 10.6796 -1.88901 2.42389
rclavicle 5.98839e-015 -7.15625e-015
rhumerus -32.9072 -14.5987 -75.9556
rradius 31.3449
rwrist 4.67691
rhand -14.9515 12.7412
rfingers 7.12502
rthumb 11.2115 -16.9392
lclavicle 5.98839e-015 -7.15625e-015
lhumerus -33.4424 9.30082 85.8523
lradius 26.5505
lwrist -12.8577
lhand -11.4503 18.1339
lfingers 7.12502
lthumb 14.5866 47.601
rfemur -5.48251 2.45268 29.3573
rtibia 22.2545
rfoot -12.6566 -0.470184
rtoes 1.58249
lfemur -27.2193 3.42098 -17.8563
ltibia 59.6972
lfoot -9.51002 -3.70649
ltoes -0.0676324
289
root 2.48671 17.5006 10.3755 -2.78467 39.4547 -4.31258
lowerback 5.63662 -0.194151 2.06673
upperback -0.337795 0.0231684 3.38814
thorax -3.51445 0.0140679 2.33834
lowerneck -14.5236 -3.44927 -9.52372
upperneck 25.1229 -3.21135 3.64749
head 10.7137 -1.88265 2.49751
rclavicle -2.06239e-014 1.59028e-015
rhumerus -32.6108 -14.2694 -76.3211
rradius 31.944
rwrist 4.72877
rhand -14.3806 12.3596
rfingers 7.12502
rthumb 11.7621 -17.2902
lclavicle -2.06239e-014 1.59028e-015
lhumerus -33.4719 8.24937 86.4048
lradius 26.7081
lwrist -10.9792
lhand -13.3335 20.072
lfingers 7.12502
lthumb 12.7717 49.6613
rfemur -5.04542 2.7221 29.4106
rtibia 22.2328
rfoot -13.3128 -0.683311
rtoes 4.98554
lfemur -27.9953 3.32043 -18.0025
ltibia 58.4505
lfoot -9.91277 -3.07841
ltoes -2.37168
290
root 2.57053 17.4775 10.4798 -2.85874 39.388 -4.55915
lowerback 5.74945 -0.199291 2.3719
upperback -0.324494 0.0426934 3.39183
thorax -3.56478 0.0183682 2.16969
lowerneck -14.7269 -3.34375 -9.69037
upperneck 25.0904 -3.0526 3.84997
head 10.735 -1.80045 2.61926
rclavicle -1.44367e-014 2.14687e-014
rhumerus -32.1368 -13.8527 -76.671
rradius 32.423
rwrist 4.79911
rhand -14.4084 12.3627
rfingers 7.12502
rthumb 11.7353 -17.2886
lclavicle -1.44367e-014 2.14687e-014
lhumerus -33.6695 9.34089 85.5968
lradius 26.2779
lwrist -13.2268
lhand -11.1999 15.6176
lfingers 7.12502
lthumb 14.8279 45.0671
rfemur -4.60359 3.09073 29.6466
rtibia 22.1318
rfoot -13.7027 -0.839436
rtoes 7.25413
lfemur -28.727 3.24737 -17.9279
ltibia 57.1241
lfoot -10.376 -2.51422
ltoes -3.93278
291
root 2.66199 17.467 10.5897 -2.91508 39.439 -4.74591
lowerback 5.76463 -0.24691 2.65109
upperback -0.285688 0.000634499 3.44164
thorax -3.53266 -0.00651109 2.06803
lowerneck -14.8873 -3.30154 -9.91825
upperneck 24.9874 -2.93408 3.91711
head 10.725 -1.75776 2.6957
rclavicle -1.51573e-014 1.98785e-014
rhumerus -31.6289 -13.1855 -76.9112
rradius 32.9119
rwrist 5.10992
rhand -14.877 12.5167
rfingers 7.12502
rthumb 11.2834 -17.1598
lclavicle -1.51573e-014 1.98785e-014
lhumerus -33.9555 7.8888 86.7693
lradius 27.1746
lwrist -9.83268
lhand -14.5394 22.4628
lfingers 7.12502
lthumb 11.609 52.1212
rfemur -3.99129 2.882 29.85
rtibia 21.8466
rfoot -14.0194 -1.03836
rtoes 5.41029
lfemur -29.3142 3.07663 -17.9255
ltibia 55.6228
lfoot -10.86 -1.89177
ltoes -4.3224
292
root 2.7485 17.4611 10.7072 -2.93594 39.4624 -4.75815
lowerback 5.78802 -0.224202 2.61433
upperback -0.287729 0.0310841 3.47299
thorax -3.54852 0.00966334 2.11877
lowerneck -14.477 -3.28587 -9.61885
upperneck 24.71 -2.91605 3.48479
head 10.5306 -1.77031 2.49003
rclavicle 1.84621e-014 -1.35174e-014
rhumerus -31.3639 -12.766 -76.962
rradius 33.5248
rwrist 5.695
rhand -14.7417 12.3495
rfingers 7.12502
rthumb 11.4139 -17.3198
lclavicle 1.84621e-014 -1.35174e-014
lhumerus -33.9946 9.86618 85.8681
lradius 26.2013
lwrist -12.7105
lhand -13.0471 20.628
lfingers 7.12502
lthumb 13.0478 50.1999
rfemur -3.20548 2.72294 29.9308
rtibia 21.4427
rfoot -14.1805 -0.93651
rtoes 6.49513
lfemur -29.6571 2.87504 -17.9449
ltibia 53.9264
lfoot -11.3209 -1.30135
ltoes -1.76062
293
root 2.83375 17.4639 10.8244 -2.97925 39.4851 -4.83145
lowerback 5.86731 -0.136108 2.66465
upperback -0.320518 0.156059 3.43865
thorax -3.62914 0.0700251 2.04462
lowerneck -13.8553 -3.27597 -9.18793
upperneck 24.2457 -2.98639 3.14962
head 10.2324 -1.79795 2.28771
rclavicle 3.27498e-014 2.54444e-014
rhumerus -31.2349 -12.6834 -77.0855
rradius 34.1549
rwrist 5.49344
rhand -14.4378 12.2698
rfingers 7.12502
rthumb 11.7069 -17.3831
lclavicle 3.27498e-014 2.54444e-014
lhumerus -33.9413 10.3025 85.7913
lradius 25.5994
lwrist -13.0353
lhand -13.9534 21.9458
lfingers 7.12502
lthumb 12.174 51.5715
rfemur -2.36765 2.72506 30.0899
rtibia 20.9251
rfoot -14.239 -1.04759
rtoes 6.38551
lfemur -29.9611 2.90647 -17.9204
ltibia 52.0586
lfoot -11.6324 -0.976803
ltoes -0.0610152
294
root 2.92841 17.4675 10.9409 -2.78215 39.5287 -4.63551
lowerback 5.76788 -0.0820972 2.57789
upperback -0.186845 0.209262 3.3985
thorax -3.43542 0.0986115 2.0453
lowerneck -14.0125 -3.24434 -9.11825
upperneck 23.8876 -2.90942 3.00487
head 10.1245 -1.76747 2.22934
rclavicle 3.27498e-014 -3.49861e-014
rhumerus -30.6978 -12.3382 -77.2857
rradius 34.7117
rwrist 4.61798
rhand -14.1822 12.2868
rfingers 7.12502
rthumb 11.9534 -17.3519
lclavicle 3.27498e-014 -3.49861e-014
lhumerus -33.8466 11.4143 85.1448
lradius 24.9705
lwrist -15.3128
lhand -11.5936 17.2082
lfingers 7.12502
lthumb 14.4486 46.6852
rfemur -1.54713 2.60081 29.9656
rtibia 20.363
rfoot -14.327 -1.11138
rtoes 5.26001
lfemur -30.2849 2.99605 -18.3041
ltibia 50.0446
lfoot -11.9828 -0.105077
ltoes -3.70946
295
root 3.01746 17.4645 11.0538 -2.88933 39.4132 -4.87358
lowerback 5.74151 -0.0307892 2.83944
upperback 0.00953268 0.288993 3.45981
thorax -3.21796 0.136661 1.95377
lowerneck -14.602 -3.27391 -9.40827
upperneck 23.8142 -2.88158 3.23588
head 10.2179 -1.75114 2.35783
rclavicle -4.62174e-014 -2.38542e-014
rhumerus -29.943 -11.7293 -77.5228
rradius 35.1312
rwrist 3.82575
rhand -13.9047 12.2648
rfingers 7.12502
rthumb 12.221 -17.3581
lclavicle -4.62174e-014 -2.38542e-014
lhumerus -33.7169 10.2935 85.9918
lradius 25.4547
lwrist -13.076
lhand -13.0888 20.056
lfingers 7.12502
lthumb 13.0076 49.6305
rfemur -0.729654 2.6568 30.2568
rtibia 19.8114
rfoot -14.4877 -1.25911
rtoes 4.46143
lfemur -30.5895 3.06311 -18.2236
ltibia 47.9919
lfoot -12.351 1.33823
ltoes -8.87286
296
root 3.09873 17.4533 11.1726 -3.03146 39.1135 -5.07545
lowerback 5.90457 0.102687 2.94347
upperback 0.0142514 0.483774 3.48309
thorax -3.30684 0.231773 1.90318
lowerneck -14.6317 -3.30042 -9.33849
upperneck 23.8811 -2.93847 3.25477
head 10.2504 -1.76951 2.34584
rclavicle -3.68249e-014 -7.95139e-016
rhumerus -29.5828 -11.1786 -77.7362
rradius 35.369
rwrist 3.41163
rhand -13.9359 12.4217
rfingers 7.12502
rthumb 12.1909 -17.203
lclavicle -3.68249e-014 -7.95139e-016
lhumerus -34.0676 9.4734 86.3886
lradius 25.8345
lwrist -11.6921
lhand -13.9941 23.5865
lfingers 7.12502
lthumb 12.1348 53.2145
rfemur -0.00133562 2.9739 30.5563
rtibia 19.3613
rfoot -14.5312 -1.34645
rtoes 5.18228
lfemur -30.7099 2.99555 -17.9585
ltibia 45.8446
lfoot -12.4847 2.55324
ltoes -10.0882
297
root 3.18736 17.4342 11.2894 -3.06002 39.0207 -5.13518
lowerback 6.00905 0.133922 2.87803
upperback -0.0907684 0.532002 3.50391
thorax -3.47578 0.255651 1.95785
lowerneck -14.1487 -3.2262 -8.92478
upperneck 23.7679 -2.88733 2.87628
head 10.1 -1.75234 2.15184
rclavicle 7.64079e-014 7.95139e-015
rhumerus -29.5732 -10.6224 -77.945
rradius 35.6488
rwrist 3.67779
rhand -14.6594 12.7534
rfingers 7.12502
rthumb 11.4932 -16.9115
lclavicle 7.64079e-014 7.95139e-015
lhumerus -34.6439 9.2291 86.4008
lradius 25.9615
lwrist -11.2223
lhand -14.1657 25.9579
lfingers 7.12502
lthumb 11.9693 55.5957
rfemur 0.730991 3.15219 30.6702
rtibia 18.8803
rfoot -14.5205 -1.25917
rtoes 6.5225
lfemur -30.7503 2.66892 -17.8906
ltibia 43.6437
lfoot -12.6227 3.42946
ltoes -12.4177
